<svg id="Layer_1" data-name="Layer 1" xmlns="http://www.w3.org/2000/svg" viewBox="0 0 612 792"><defs><style>.cls-1{fill:#fff;}.cls-2{font-size:51.01px;font-family:GTPressura, GT Pressura;}.cls-3{font-size:21.15px;}.cls-4{letter-spacing:-0.04em;}.cls-5{letter-spacing:-0.05em;}</style></defs><title>Artboard 1</title><polygon class="cls-1" points="421.51 33.96 345.93 33.96 380.11 0 233.02 0 0 233.89 0 377.69 41.4 336.56 41.4 411.65 421.51 33.96"/><text class="cls-2" transform="matrix(0.71, -0.71, 0.71, 0.71, 38.96, 267.94)">GRAND OPENING <tspan class="cls-3"><tspan x="78.97" y="24">S</tspan><tspan class="cls-4" x="89.75" y="24">A</tspan><tspan x="99.23" y="24">TURD</tspan><tspan class="cls-5" x="142.38" y="24">A</tspan><tspan x="151.6" y="24">Y MARCH 30</tspan></tspan></text><path d="M222.83,181.49l4.36-4.36-24.88-7.88,7.88,24.88,4.36-4.36Zm-12.28-4,7.21,2.46L213,184.7Z"/><polygon points="220.57 187.92 213.66 198.85 217.85 203.04 224.76 192.11 235.77 185.12 231.58 180.93 220.57 187.92"/><polygon points="189.41 191.67 185.33 187.59 174.88 194.23 168.31 204.61 172.39 208.69 177.49 200.62 181.5 204.63 176.4 212.7 180.47 216.78 185.57 208.71 200.1 223.24 203.95 219.38 189.44 204.87 197.49 199.76 193.42 195.68 185.36 200.79 181.35 196.78 189.41 191.67"/><circle cx="239" cy="149.8" r="1.17" transform="translate(-35.93 212.87) rotate(-45)"/><circle cx="232.28" cy="151.31" r="1.17" transform="translate(-38.96 208.57) rotate(-45)"/><circle cx="239.68" cy="156" r="0.97" transform="translate(-40.11 215.17) rotate(-45)"/><circle cx="244.61" cy="157.33" r="0.97" transform="translate(-39.61 219.04) rotate(-45)"/><circle cx="246.83" cy="163.97" r="0.79" transform="translate(-43.65 222.56) rotate(-45)"/><path d="M218.07,151.76l27.68,20a4.28,4.28,0,0,0,5.55-.44l4.94-4.94a4,4,0,0,0,.41-5.14l-20.15-27.89Zm35.52,11.67a.2.2,0,0,1,0,.26l-4.94,4.94a.51.51,0,0,1-.67.05L223.88,151.3,236,139.14Z"/><path d="M177.36,248.62l-15-34.61-19.19,19.19Zm-22.22-22.08a2.24,2.24,0,0,0,3.16-3.16l2.78-2.78,2.07,4.77a2.24,2.24,0,1,0,1.72,4l2.09,4.81a2,2,0,1,0,1.5,3.44l1.56,3.58-14.12-6.36a2,2,0,1,0-3.69-1.66L149.67,232Z"/><circle cx="161.13" cy="233.24" r="1.46" transform="translate(-117.73 182.25) rotate(-45)"/><polygon points="136.56 229.9 141.14 232.01 160.95 212.26 158.63 207.89 136.56 229.9"/></svg>