<?xml version="1.0" encoding="utf-8"?>
<!-- Generator: Adobe Illustrator 24.0.3, SVG Export Plug-In . SVG Version: 6.00 Build 0)  -->
<svg version="1.1" id="Layer_1" xmlns="http://www.w3.org/2000/svg" xmlns:xlink="http://www.w3.org/1999/xlink" x="0px" y="0px"
	 viewBox="0 0 265 60" style="enable-background:new 0 0 265 60;" xml:space="preserve">
<path d="M262.2,28.7c0,0-23.2,0-23.2,0l11.03-25.87c0.22-0.52-0.16-1.11-0.73-1.11l-3.67,0c-0.32,0-0.61,0.19-0.73,0.48
	c0,0-11.3,26.49-11.3,26.5c0,0-15.62,0-15.62,0l9.09-21.33c0.19-0.45,0.57-0.57,0.78-0.61c0.21-0.03,0.61-0.03,0.93,0.35l4.24,4.96
	c0.29,0.33,0.79,0.37,1.12,0.09l2.57-2.19c0.33-0.29,0.37-0.79,0.09-1.12l-4.24-4.96c-1.35-1.59-3.39-2.35-5.46-2.03
	c-2.06,0.31-3.78,1.65-4.6,3.57c0,0-9.92,23.29-9.93,23.29h-7.73c-0.3,0-0.57,0.17-0.71,0.43l-1.7,3.28
	c-0.27,0.53,0.08,1.25,0.67,1.25c0,0,7.34,0,7.35,0.01l-7.17,16.87c-0.49,1.14-1.6,1.91-2.84,1.92c-2.04,0-5.86,0-5.29,0
	c-3.03,0.02-4.52-3.24-4.08-5.95l3.59-7.91l-0.03,0.09l5.46-12.03c0.21-0.48-0.07-0.91-0.49-0.91l-4.14,0
	c-0.23,0-0.43,0.13-0.53,0.34l-1.52,3.31c-1.16-0.86-2.66-1.33-4.33-1.33h-4.34c-3.99,0-7.69,2.32-9.43,5.9l-7.25,14.89
	c-0.37,0.81-0.54,1.6-0.59,2.34c-0.04,0.63-0.58,1.19-1.21,1.21c-0.23,0.01-0.5,0.02-0.8,0.03h-4.77c-0.57,0-0.88-0.35-1.01-0.56
	c-0.13-0.21-0.31-0.64-0.06-1.15l4.19-8.63c0.98-2.02,0.29-4.44-1.6-5.65c0,0-8.98-5.23-8.98-5.23l1.48-2.98
	c0.19-0.39,0.03-0.87-0.37-1.06l-3.04-1.48c-0.39-0.19-0.87-0.03-1.06,0.37l-12.5,25.7c-0.2,0.41-0.62,0.67-1.07,0.67h-18.91
	c-0.47,0-0.72-0.29-0.82-0.46c-0.11-0.17-0.25-0.52-0.04-0.97l9.18-19.64c0.19-0.39,0.52-0.54,0.69-0.6
	c0.17-0.06,0.52-0.12,0.89,0.08l9.43,5.17c0.38,0.22,0.87,0.09,1.09-0.29l1.69-2.92c0.22-0.38,0.09-0.87-0.29-1.09l-9.46-5.19
	l-0.05-0.03c-1.46-0.8-3.22-0.97-4.81-0.46c-1.23,0.39-2.09,1.07-3.25,2.67c0,0-16.31,0-16.32-0.01l11-25.87
	c0.22-0.52-0.16-1.11-0.73-1.11h-3.67c-0.32,0-0.61,0.19-0.73,0.48c0,0-11.26,26.49-11.27,26.49c0,0-15.58,0-15.59-0.01l9.05-21.24
	c0.19-0.45,0.57-0.57,0.78-0.61c0.21-0.03,0.61-0.03,0.93,0.35l4.27,5c0.27,0.31,0.73,0.35,1.05,0.08l2.65-2.26
	c0.31-0.27,0.35-0.73,0.08-1.05l-4.27-5c-1.35-1.59-3.39-2.35-5.46-2.03c-2.06,0.32-3.78,1.65-4.6,3.57c0,0-9.89,23.19-9.89,23.2
	h-7.73c-0.3,0-0.57,0.17-0.71,0.43l-1.73,3.38c-0.27,0.53,0.11,1.16,0.71,1.16c0,0,7.34,0,7.35,0.01l-7.69,18.09
	c-0.17,0.4-0.56,0.66-0.99,0.66c0,0-26.67,0.01-26.67,0.01c-0.46,0-0.71-0.28-0.81-0.45c-0.05-0.08-0.11-0.27-0.14-0.42
	c4.2-2.27,20.42-11.2,23.06-14.87c1.22-1.7,1.35-3.88,0.35-5.83c-1.16-2.27-3.62-3.74-6.27-3.74h-7.17c-2.31,0-4.46,1.35-5.48,3.43
	c0,0-8.54,17.57-8.55,17.57l-8.08,4.19c-0.16,0.08-0.34,0.13-0.52,0.13H12.04c-0.45,0-0.69-0.27-0.8-0.43
	c-0.11-0.16-0.26-0.49-0.09-0.88L29.34,9.96c0.95-2.23,0.47-4.83-1.33-6.59c-1.13-1.1-2.69-1.66-4.26-1.66l-18.39,0
	c-0.3,0-0.57,0.17-0.71,0.43L2.91,5.53C2.64,6.06,3.02,6.69,3.62,6.69H23.9c0.45,0,0.69,0.27,0.8,0.43C24.8,7.27,24.95,7.6,24.78,8
	L6.59,49.15c-0.95,2.23-0.47,4.83,1.33,6.59c1.13,1.1,2.68,1.66,4.26,1.66l16.02,0c1.01,0,2.01-0.25,2.9-0.73
	c0,0,5.38-2.65,5.38-2.65c0.21,0.42,0.47,0.89,0.78,1.27c1.1,1.36,2.79,2.11,4.54,2.11l26.66-0.01c2.42,0,4.61-1.45,5.56-3.68
	c0,0,8.52-20.04,8.52-20.04c0,0,15.59,0,15.6,0.01l-6.52,15.34c-0.79,1.85-0.62,3.96,0.46,5.66c1.08,1.7,2.96,2.65,4.97,2.72l4.42,0
	c0.3,0.01,0.57-0.15,0.72-0.41l1.81-3.29c0.29-0.53-0.09-1.17-0.69-1.18l-6.1-0.09c-0.51-0.02-0.79-0.33-0.91-0.52
	c-0.12-0.19-0.29-0.57-0.08-1.05c0,0,7.31-17.19,7.32-17.2c0,0,15.95,0,15.96,0.01l-7.12,15.19c-1.01,2.08-0.74,4.53,0.75,6.37
	c1.15,1.41,2.93,2.16,4.75,2.16l18.75,0c2.34,0,4.51-1.36,5.54-3.47c0,0,8.84-18.22,8.84-18.23c0,0,8.07,4.65,8.07,4.66l-3.91,8.06
	c-0.81,1.66-0.92,3.6-0.17,5.28c1.02,2.29,3.21,3.7,5.65,3.7h4.77c1.38,0,2.71-0.54,3.77-1.36c0.28-0.2,0.23-0.17,0.42-0.04
	c1.03,0.84,2.34,1.4,3.71,1.4c0,0,0,0,0,0l6.69,0c3.05,0,5.87-1.56,7.65-3.95l0.44,0.67c1.32,1.95,3.48,3.28,5.83,3.28l6.49-0.01
	c3.23,0,6.14-1.93,7.41-4.9c0,0,8-18.82,8-18.82c0,0,15.62,0,15.62,0.01l-6.51,15.25c-0.79,1.85-0.62,3.97,0.46,5.66
	c1.08,1.7,2.92,2.75,4.93,2.81l4.4,0c0.3,0.01,0.57-0.15,0.71-0.41l1.85-3.35c0.29-0.53-0.09-1.17-0.69-1.18h-6.12
	c-0.51-0.02-0.79-0.33-0.91-0.52c-0.12-0.19-0.29-0.57-0.09-1.04c0,0,7.35-17.22,7.35-17.23h23.59c0.3,0,0.57-0.17,0.71-0.43
	l1.73-3.38C263.18,29.33,262.8,28.7,262.2,28.7z M49.83,32.72c0.19-0.39,0.58-0.63,1.01-0.63H58c0.91,0,1.59,0.52,1.85,1.04
	c0.14,0.28,0.16,0.5,0.04,0.67c-1.07,1.49-8.55,6.16-15.52,10.15c0,0-0.01,0,0,0L49.83,32.72z M184.22,49.67
	c-0.74,1.64-2.4,2.78-4.2,2.78l-6.69,0h0c-0.46,0-0.7-0.28-0.81-0.45c-0.11-0.17-0.25-0.51-0.05-0.92l7.18-14.75
	c0.92-1.9,2.97-3.34,5.08-3.34h4.34c0.77,0,1.38,0.23,1.64,0.6c0.24,0.35,0.22,0.94-0.05,1.6l-0.94,2.33L184.22,49.67z"/>
</svg>
