<?xml version="1.0" encoding="utf-8"?>
<!-- Generator: Adobe Illustrator 24.0.3, SVG Export Plug-In . SVG Version: 6.00 Build 0)  -->
<svg version="1.1" id="Layer_1" xmlns="http://www.w3.org/2000/svg" xmlns:xlink="http://www.w3.org/1999/xlink" x="0px" y="0px"
	 viewBox="0 0 758 260.2" style="enable-background:new 0 0 758 260.2;" xml:space="preserve">
<style type="text/css">
	.st0{fill:#FFFFFF;}
</style>
<title>trailbend_logo-W</title>
<path class="st0" d="M750.5,127.5h-66.3l31.5-74c0.6-1.6-0.4-3.1-2.2-3.1H703c-1,0-1.8,0.6-2.2,1.4l-32.3,75.8h-44.7l26-61
	c0.6-1.4,1.6-1.6,2.2-1.8c0.6,0,1.8,0,2.6,1l12.2,14.2c0.8,1,2.2,1,3.1,0.2l7.3-6.3c1-0.8,1-2.2,0.2-3.1l-12.2-14.2
	c-3.9-4.5-9.6-6.7-15.5-5.9c-5.9,1-10.8,4.7-13.2,10.2l-28.3,66.5h-22c-0.8,0-1.6,0.4-2,1.2l-4.9,9.4c-0.8,1.6,0.2,3.5,2,3.5h21.1
	l-20.5,48.2c-1.4,3.3-4.5,5.5-8.1,5.5c-5.9,0-16.7,0-15.2,0c-8.7,0-13-9.2-11.6-16.9l10.2-22.6v0.2l15.5-34.4
	c0.6-1.4-0.2-2.6-1.4-2.6h-11.8c-0.6,0-1.2,0.4-1.6,1l-4.3,9.4c-3.3-2.4-7.7-3.7-12.4-3.7h-12.4c-11.4,0-22,6.7-27,16.9L481.2,185
	c-1,2.4-1.6,4.5-1.8,6.7c-0.2,1.8-1.6,3.3-3.5,3.5c-0.6,0-1.4,0-2.4,0H460c-1.6,0-2.6-1-3-1.6s-1-1.8-0.2-3.3l12-24.6
	c2.8-5.7,0.8-12.8-4.5-16.1l-25.6-15l4.1-8.5c0.6-1.2,0-2.6-1-3l-8.7-4.1c-1.2-0.6-2.6,0-3,1l-35.6,73.4c-0.6,1.2-1.8,2-3.1,2h-53.9
	c-1.4,0-2-0.8-2.4-1.4c-0.4-0.4-0.8-1.6-0.2-2.8l26.2-56.1c0.6-1.2,1.6-1.6,2-1.8c0.6-0.2,1.6-0.4,2.6,0.2l27,14.8
	c1.2,0.6,2.6,0.2,3.1-0.8l4.9-8.3c0.6-1.2,0.2-2.6-0.8-3.1l-27-14.8h-0.2c-4.1-2.4-9.2-2.8-13.8-1.4c-3.5,1.2-5.9,3.1-9.2,7.7h-46.6
	l31.5-74c0.6-1.6-0.4-3.1-2.2-3.1h-10.6c-1,0-1.8,0.6-2.2,1.4l-32.3,75.8h-44.5l26-61c0.6-1.4,1.6-1.6,2.2-1.8c0.6,0,1.8,0,2.6,1
	l12.2,14.4c0.8,1,2.2,1,3,0.2l7.5-6.5c1-0.8,1-2.2,0.2-3l-12.2-14.4c-3.9-4.5-9.6-6.7-15.5-5.9c-5.9,1-10.8,4.7-13.2,10.2
	l-28.3,66.3h-22c-0.8,0-1.6,0.4-2,1.2l-4.9,9.6c-0.8,1.6,0.4,3.3,2,3.3h21.1l-22,51.8c-0.4,1.2-1.6,2-2.8,2h-76.2
	c-1.4,0-2-0.8-2.4-1.4c-0.2-0.2-0.4-0.8-0.4-1.2c12-6.5,58.4-32.1,65.9-42.5c3.5-4.9,3.9-11,1-16.7c-3.3-6.5-10.4-10.6-17.9-10.6
	h-20.3c-6.7,0-12.8,3.9-15.7,9.8l-24.4,50.2l-23,12c-0.4,0.2-1,0.4-1.6,0.4H35.3c-1.2,0-2-0.8-2.4-1.2c-0.4-0.4-0.8-1.4-0.2-2.6
	l52-117.7c2.8-6.3,1.4-13.8-3.7-18.9c-3.1-3.1-7.7-4.7-12.2-4.7H16.2c-0.8,0-1.6,0.4-2,1.2L9.3,61c-0.8,1.6,0.4,3.3,2,3.3h58.1
	c1.2,0,2,0.8,2.4,1.2c0.4,0.4,0.8,1.4,0.2,2.6L20,185.8c-2.8,6.3-1.4,13.8,3.7,18.9c3.1,3.1,7.7,4.7,12.2,4.7h45.9
	c3,0,5.7-0.8,8.3-2.2l15.4-7.5c0.6,1.2,1.4,2.6,2.2,3.5c3.1,3.9,8.1,6.1,13,6.1h76.2c6.9,0,13.2-4.1,15.9-10.4l24.4-57.3h44.7
	L263,185.6c-2.2,5.3-1.8,11.4,1.4,16.1c3.1,4.9,8.5,7.7,14.2,7.9h12.6c0.8,0,1.6-0.4,2-1.2l5.1-9.4c0.8-1.6-0.2-3.3-2-3.3l-17.5-0.2
	c-1.4,0-2.2-1-2.6-1.6c-0.4-0.6-0.8-1.6-0.2-3l20.9-49.2h45.7l-20.3,43.5c-3,5.9-2.2,13,2.2,18.3c3.3,4.1,8.5,6.1,13.6,6.1h53.5
	c6.7,0,13-3.9,15.7-9.8l25.2-52.2l23,13.4l-11.2,23c-2.4,4.7-2.6,10.2-0.6,15.2c3,6.5,9.2,10.6,16.1,10.6h13.6
	c3.9,0,7.7-1.6,10.8-3.9c0.8-0.6,0.6-0.4,1.2-0.2c3,2.4,6.7,3.9,10.6,3.9l0,0h19.1c8.7,0,16.7-4.5,21.8-11.2l1.2,2
	c3.7,5.5,10,9.4,16.7,9.4h18.5c9.2,0,17.5-5.5,21.3-14l22.8-53.7h44.7l-18.7,43.7c-2.2,5.3-1.8,11.4,1.4,16.1
	c3.1,4.9,8.3,7.9,14.2,8.1h12.6c0.8,0,1.6-0.4,2-1.2l5.3-9.6c0.8-1.6-0.2-3.3-2-3.3h-17.5c-1.4,0-2.2-1-2.6-1.6
	c-0.4-0.6-0.8-1.6-0.2-3l21.1-49.2h67.5c0.8,0,1.6-0.4,2-1.2l4.9-9.6C753.4,129.3,752.2,127.5,750.5,127.5z M143.3,139
	c0.6-1.2,1.6-1.8,3-1.8h20.5c2.6,0,4.5,1.6,5.3,3c0.4,0.8,0.4,1.4,0.2,2c-3.1,4.3-24.4,17.7-44.3,28.9l0,0L143.3,139z M527.5,187.4
	c-2.2,4.7-6.9,7.9-12,7.9h-19.1l0,0c-1.4,0-2-0.8-2.4-1.2c-0.4-0.4-0.8-1.4-0.2-2.6l20.5-42.1c2.6-5.5,8.5-9.6,14.6-9.6h12.4
	c2.2,0,3.9,0.6,4.7,1.8c0.6,1,0.6,2.8-0.2,4.5l-2.8,6.7L527.5,187.4z"/>
</svg>
